<?xml version="1.0" standalone="no"?>
<!DOCTYPE svg PUBLIC "-//W3C//DTD SVG 20010904//EN"
 "http://www.w3.org/TR/2001/REC-SVG-20010904/DTD/svg10.dtd">
<svg version="1.0" xmlns="http://www.w3.org/2000/svg"
 width="700.000000pt" height="700.000000pt" viewBox="0 0 700.000000 700.000000"
 preserveAspectRatio="xMidYMid meet">
<metadata>
Created by potrace 1.14, written by Peter Selinger 2001-2017
</metadata>
<g transform="translate(0.000000,700.000000) scale(0.100000,-0.100000)"
fill="#000000" stroke="none">
<path d="M3329 5176 c-2 -2 -31 -7 -64 -11 -62 -6 -100 -12 -100 -15 0 -1 -11
-3 -25 -5 -29 -3 -141 -32 -173 -45 -36 -14 -61 -23 -73 -25 -42 -10 -243
-113 -281 -145 -7 -5 -15 -10 -18 -10 -6 0 -156 -108 -165 -119 -3 -3 -21 -18
-41 -33 -19 -14 -46 -35 -60 -47 -13 -11 -58 -47 -99 -81 -41 -33 -84 -68 -95
-78 -11 -9 -38 -31 -60 -47 -22 -17 -42 -32 -45 -35 -3 -3 -39 -33 -80 -66
-41 -33 -144 -115 -228 -183 -142 -114 -178 -136 -242 -146 -14 -2 -60 -13
-102 -24 -42 -12 -87 -23 -100 -25 -13 -3 -24 -5 -25 -7 -2 -1 -6 -2 -10 -4
-38 -10 -62 -15 -85 -19 -15 -3 -31 -7 -36 -10 -5 -3 -19 -7 -33 -10 -13 -2
-64 -14 -113 -26 -49 -12 -94 -23 -100 -24 -6 -1 -15 -4 -21 -8 -5 -3 -30 -9
-55 -13 -25 -4 -52 -11 -60 -15 -8 -4 -31 -10 -50 -13 -19 -4 -53 -11 -75 -17
-22 -6 -49 -13 -59 -15 -10 -2 -33 -9 -50 -14 -17 -6 -44 -13 -61 -16 -64 -13
-77 -16 -130 -36 -94 -35 -192 -146 -211 -240 -4 -19 -8 -122 -8 -230 l-1
-197 -30 -11 c-61 -22 -65 -42 -65 -314 0 -146 4 -257 10 -273 12 -30 54 -73
73 -75 41 -4 700 -3 706 1 4 3 8 46 8 95 1 90 4 117 25 210 21 94 100 258 161
332 67 82 258 240 294 244 5 1 25 10 46 20 20 11 37 17 37 14 0 -3 10 1 22 9
13 8 34 16 48 18 14 2 31 7 38 11 6 5 12 6 12 4 0 -3 28 1 63 9 83 18 261 12
357 -12 41 -10 77 -20 80 -23 3 -4 14 -8 25 -9 29 -6 169 -78 184 -96 8 -9 18
-16 22 -16 9 0 49 -33 118 -100 77 -74 201 -270 201 -319 0 -9 4 -21 9 -27 6
-5 12 -21 15 -37 3 -15 8 -37 11 -50 14 -71 21 -141 19 -207 l-2 -75 940 0
940 0 4 115 c2 63 5 126 8 140 11 53 50 175 59 181 5 3 8 9 8 13 -1 8 42 99
50 106 3 3 12 15 18 28 26 50 161 189 226 234 90 62 203 117 280 135 145 33
283 40 405 17 19 -3 40 -7 45 -8 6 -1 16 -5 23 -9 6 -5 16 -6 21 -2 5 3 12 1
16 -5 3 -5 14 -10 24 -10 30 0 199 -93 268 -149 61 -49 90 -79 169 -176 44
-55 114 -208 139 -310 19 -74 26 -126 26 -200 l0 -100 327 1 c180 1 333 2 340
3 19 2 71 58 78 85 3 12 4 132 2 267 -3 265 -6 277 -60 300 -15 6 -30 9 -33 8
-11 -7 -24 26 -30 77 -4 27 -8 60 -10 74 -2 14 -7 52 -10 85 -4 33 -9 74 -12
90 -6 47 -12 95 -18 150 -3 28 -7 61 -9 75 -3 14 -8 52 -11 85 -3 33 -12 103
-20 155 -8 52 -15 117 -16 143 -2 27 -6 50 -11 53 -4 3 -8 14 -8 25 0 26 -32
88 -67 129 -45 54 -126 100 -203 116 -39 8 -296 1 -306 -9 -8 -8 -34 3 -54 22
-9 9 -51 48 -95 86 -43 39 -88 79 -99 90 -12 11 -59 54 -106 95 -47 41 -94 84
-106 95 -11 11 -54 49 -94 85 -40 36 -82 74 -94 85 -229 208 -252 224 -355
252 -26 8 -1835 16 -1842 9z m1161 -631 l0 -261 -27 -1 c-31 -1 -228 -11 -343
-18 -162 -9 -312 -17 -396 -21 -49 -2 -143 -6 -209 -9 -66 -3 -158 -8 -205
-10 -47 -2 -85 -4 -85 -5 0 -1 -40 -3 -90 -5 -49 -2 -139 -6 -200 -9 -60 -4
-148 -9 -195 -11 -47 -2 -134 -7 -195 -10 -191 -10 -295 -14 -295 -11 0 6 432
351 476 381 21 14 41 29 44 33 9 12 161 92 210 111 19 8 49 20 65 27 36 15
166 51 215 58 19 4 55 9 80 12 25 3 46 6 47 7 1 1 249 2 552 3 l551 0 0 -261z
m588 253 c6 -1 12 -6 12 -11 0 -6 3 -8 6 -4 5 5 19 -4 70 -48 35 -31 143 -127
174 -155 15 -14 63 -57 106 -95 42 -39 96 -87 118 -107 l41 -38 -40 -1 c-22 0
-62 -3 -90 -5 -27 -2 -104 -6 -170 -8 -66 -3 -120 -6 -120 -7 0 -2 -80 -6
-205 -10 l-115 -4 -1 245 c0 135 0 248 2 251 3 5 168 3 212 -3z"/>
<path d="M1617 3244 c-1 -1 -20 -5 -42 -8 -92 -15 -206 -59 -278 -107 -56 -39
-157 -132 -157 -146 0 -7 -4 -13 -9 -13 -14 0 -89 -130 -110 -193 -38 -108
-54 -264 -37 -342 27 -126 37 -157 63 -208 14 -29 39 -72 56 -97 37 -55 174
-190 193 -190 8 0 14 -5 14 -11 0 -5 4 -8 9 -4 5 3 13 0 16 -5 8 -13 108 -60
128 -60 7 0 17 -3 21 -7 3 -4 12 -8 19 -9 7 -1 32 -5 57 -10 91 -16 287 -7
329 16 9 4 18 8 21 8 27 2 120 46 180 86 64 42 181 166 210 223 13 26 28 51
32 54 5 3 10 14 13 25 2 10 13 44 24 74 31 86 41 205 27 305 -10 66 -28 136
-42 164 -8 14 -14 32 -14 39 0 7 -8 25 -18 40 -11 15 -32 46 -47 70 -64 97
-197 207 -305 251 -64 27 -161 52 -172 45 -5 -3 -8 -2 -8 3 0 7 -166 13 -173
7z m154 -512 c101 -40 159 -170 120 -269 -18 -44 -64 -103 -80 -103 -6 0 -11
-4 -11 -9 0 -15 -99 -34 -142 -27 -113 18 -180 101 -180 221 0 139 159 240
293 187z"/>
<path d="M5266 3243 c-2 -2 -16 -6 -32 -9 -23 -4 -89 -22 -144 -39 -44 -14
-173 -96 -218 -139 -56 -52 -148 -179 -157 -216 -1 -3 -11 -25 -22 -50 -11
-25 -24 -63 -28 -85 -5 -22 -10 -47 -12 -55 -13 -55 -4 -229 16 -300 21 -74
25 -86 39 -107 8 -13 10 -23 6 -23 -5 0 -4 -4 2 -8 6 -4 19 -23 29 -42 10 -18
23 -40 29 -47 6 -7 29 -35 51 -61 22 -26 63 -65 90 -87 50 -40 215 -129 223
-120 3 2 19 -1 36 -8 75 -30 297 -29 379 2 15 6 27 9 27 7 0 -11 169 80 209
112 58 46 131 120 131 133 0 5 4 9 8 9 21 0 119 213 125 272 2 19 6 38 9 43 7
12 2 207 -7 255 -27 145 -141 327 -262 416 -67 49 -165 104 -174 98 -4 -2 -10
0 -13 5 -3 4 -20 12 -38 16 -18 4 -40 9 -48 12 -44 12 -245 25 -254 16z m184
-517 c48 -24 98 -83 111 -130 42 -153 -75 -290 -234 -273 -131 14 -214 150
-171 279 39 119 183 179 294 124z"/>
</g>
</svg>
